<svg width="703" height="249" viewBox="0 0 703 249" fill="none" xmlns="http://www.w3.org/2000/svg">
<g clip-path="url(#clip0_875_899)">
<path d="M177.214 61.0149C168.225 61.0149 158.373 66.5523 159.883 75.254C160.315 77.4833 161.321 79.0655 162.616 80.288C161.321 80.8633 160.099 81.151 158.804 81.151C154.13 81.151 150.678 77.2676 149.887 72.8808C148.161 63.2442 163.551 56.9157 177.862 56.9157C189.224 56.9157 197.998 59.4327 199.796 69.5008C200.946 76.1889 197.135 84.0276 188.793 88.6301L188.865 88.702C198.501 88.702 203.535 93.5922 204.686 99.705C206.556 110.205 196.919 124.444 179.444 124.444C169.376 124.444 160.458 121.855 159.739 117.828C159.38 115.886 160.171 114.088 162.616 113.297C164.198 114.448 165.708 115.31 167.29 116.102L169.52 69.357C169.735 65.2578 173.043 63.8195 176.423 63.8195C178.077 63.8195 179.803 64.251 181.026 64.9702L179.875 88.4863C186.995 86.3288 191.166 77.5552 189.943 70.5076C188.793 63.8914 184.694 61.0149 177.214 61.0149ZM179.731 92.945L178.437 118.906H178.509C187.93 118.906 194.69 109.413 193.108 100.136C192.317 95.6058 189.152 92.4416 183.759 92.4416C182.464 92.4416 181.098 92.5854 179.731 92.945Z" fill="#FBFF4F"/>
<path d="M221.586 99.5611L222.089 99.4173C226.26 98.1229 231.006 90.2122 231.582 80.9352C232.948 80.2161 234.458 80.0003 235.825 80.0003C238.917 80.0003 240.931 81.942 241.29 84.0995C242.225 89.2773 236.4 96.9722 231.366 100.568C233.523 105.458 237.838 115.598 244.455 115.598C246.324 115.598 248.05 114.016 250.064 111.93C251.143 112.362 251.862 113.153 252.006 114.016C252.077 114.591 251.934 115.31 251.502 115.958C248.841 119.769 243.376 124.587 239.564 124.587C230.359 124.587 225.541 110.708 223.024 103.948L221.442 104.379L220.866 119.122C220.651 123.149 217.415 124.587 214.106 124.587C212.452 124.587 210.798 124.156 209.576 123.437L211.23 90.0684C211.302 88.5582 210.726 87.911 209.935 87.911C209.504 87.911 209.001 88.2705 208.281 88.9178C206.987 88.1986 205.836 85.5378 207.418 84.1714C210.151 81.7982 213.1 80.0003 216.983 80.0003C220.291 80.0003 222.377 81.3667 222.233 84.7467L221.586 99.5611Z" fill="#FBFF4F"/>
<path d="M250.28 89.9965C250.424 88.6301 249.776 87.8391 248.985 87.8391C248.554 87.8391 248.05 88.1986 247.331 88.8459C246.037 88.1267 244.886 85.4659 246.468 84.0995C249.201 81.7263 252.149 79.9284 256.033 79.9284C259.341 79.9284 261.498 81.4386 261.283 84.6748L259.988 109.701C259.844 112.362 260.923 114.448 263.944 114.448C266.604 114.448 268.69 113.225 270.488 111.355L271.854 85.394C272.07 81.3667 275.306 79.9284 278.614 79.9284C280.268 79.9284 281.922 80.3599 283.145 81.0791L281.419 115.454C281.347 116.677 281.275 117.899 281.203 119.05C285.806 116.677 290.264 114.088 292.997 111.499C294.579 112.65 295.154 114.519 293.86 115.814C292.422 117.18 286.884 121.136 280.915 123.94C279.549 140.121 275.809 157.165 259.485 157.165C254.379 157.165 247.763 153.713 246.54 146.45C244.598 135.447 256.177 130.197 270.272 123.796C270.56 121.711 270.703 119.553 271.063 117.18C268.258 121.423 264.591 124.3 260.06 124.3C250.999 124.3 248.913 115.814 249.345 107.688L250.28 89.9965ZM269.265 129.622C259.269 134.656 252.437 138.827 253.588 145.443C254.091 148.463 256.896 149.542 258.046 149.542C264.375 149.47 267.036 143.573 269.265 129.622Z" fill="#FBFF4F"/>
<path d="M308.819 79.5688C316.226 79.5688 320.397 82.3735 321.404 87.9829C322.267 92.8731 319.606 95.1024 316.226 95.1024C315.003 95.1024 313.493 94.7429 312.342 93.8799C312.99 91.7944 313.062 89.4212 312.846 88.2705C312.558 86.6165 311.336 85.7535 309.034 85.7535C303.928 85.7535 299.542 95.0305 301.771 107.544C302.922 114.088 307.021 116.893 311.695 116.893C315.722 116.893 318.311 115.095 319.318 111.93C321.044 111.93 322.195 112.793 322.482 114.304C323.345 119.05 315.866 124.444 307.74 124.444C299.326 124.444 292.638 120.273 290.624 108.91C288.251 95.5339 295.083 79.5688 308.819 79.5688Z" fill="#FBFF4F"/>
<path d="M550.02 114.304C549.732 112.793 548.582 111.931 546.856 111.931C546.065 115.023 544.123 116.102 542.469 116.102C540.671 116.102 539.089 114.16 539.305 109.773L540.671 81.0072C539.449 80.288 537.795 79.8565 536.141 79.8565C533.839 79.8565 531.61 80.6476 530.315 82.3735C527.655 80.4318 524.49 79.4969 520.391 79.4969C507.662 79.4969 499.967 94.5991 502.628 109.773C502.772 110.636 502.988 111.571 503.276 112.506C501.262 114.376 498.17 116.102 495.149 116.102C493.279 116.102 491.913 115.095 492.057 112.506L493.064 92.5135C493.639 82.3735 487.239 79.7846 483.139 79.7846C477.818 79.7846 473.862 83.5242 470.986 88.702C470.195 82.5174 465.448 79.7846 461.709 79.7846C456.459 79.7846 452.504 83.3803 449.699 88.4863L449.915 84.6029C450.131 81.2948 447.973 79.8565 444.665 79.8565C440.782 79.8565 437.833 81.6544 435.1 84.0276C433.518 85.394 434.597 88.1267 435.963 88.774C436.682 88.0548 437.186 87.7671 437.617 87.7671C438.408 87.7671 439.056 88.5582 438.912 89.9246L438.049 107.472C434.957 112.434 427.334 116.821 420.717 116.821C416.474 116.821 412.807 115.095 411.081 110.42C427.118 101.143 430.21 95.2463 428.916 87.8391C428.197 83.9557 425.32 79.4969 416.978 79.4969C401.876 79.4969 397.129 97.5476 399.143 108.838C399.359 110.133 399.718 111.283 400.078 112.434C398.064 114.376 394.9 116.173 391.808 116.173C389.434 116.173 387.709 114.591 387.924 109.773L389.147 83.3803C389.291 79.9284 369.442 79.2093 363.617 79.2093C358.367 79.2093 353.837 81.2948 354.772 86.6884C355.059 88.1986 355.922 89.7088 357.504 91.1471C359.015 89.1335 362.898 88.0548 367.716 87.3357C365.199 110.061 361.532 114.591 357.217 117.396C356.929 115.67 356.785 113.081 357.576 110.636C356.282 109.845 354.7 109.413 353.621 109.413C350.241 109.413 347.436 110.636 348.155 114.807C349.306 121.136 352.614 124.587 356.354 124.516C359.806 124.444 363.761 121.208 366.709 114.448C369.155 108.91 371.168 100.208 372.319 86.8323C374.189 86.6884 376.13 86.5446 377.928 86.4727L376.777 110.492C376.274 122.07 381.38 124.444 387.78 124.444C392.599 124.444 398.352 120.632 401.876 116.173C405.328 121.783 411.225 124.444 417.553 124.444C424.745 124.444 432.511 120.992 437.761 115.023L437.33 123.293C438.552 124.012 440.206 124.444 441.86 124.444C445.168 124.444 448.405 122.933 448.62 118.978L449.843 94.2395C451.856 91.4348 454.158 89.7088 457.466 89.7088C460.486 89.7088 460.702 92.082 460.558 94.8148L459.192 123.293C460.414 124.012 462.068 124.444 463.722 124.444C467.03 124.444 470.267 122.933 470.482 118.978L471.705 93.7361C473.647 91.291 475.876 89.7088 478.968 89.7088C481.989 89.7088 482.348 92.082 482.061 94.8148L481.27 112.074C480.766 122.214 486.016 124.372 490.619 124.372C496.444 124.372 501.621 120.776 505.073 116.533C507.159 120.632 510.827 124.372 516.939 124.372C522.189 124.372 526.36 120.704 529.309 115.598C530.459 122.43 535.062 124.372 539.377 124.372C544.267 124.444 551.027 120.416 550.02 114.304ZM418.704 86.3289C420.286 86.3289 421.58 87.6952 421.94 89.7088C422.947 95.3182 417.985 101.431 410.002 106.753C409.211 100.712 409.643 86.3289 418.704 86.3289ZM528.23 110.061C526.288 113.297 522.836 115.526 519.96 115.526C517.083 115.526 514.638 113.585 513.919 109.27C512.265 99.7769 513.775 86.1131 524.85 86.1131C526.216 86.1131 527.655 86.2569 529.309 86.8323L528.23 110.061Z" fill="#FBFF4F"/>
<path d="M180.235 62.597C171.246 62.597 161.393 68.1344 162.904 76.8361C163.335 79.0655 164.342 80.6476 165.636 81.8701C164.342 82.4454 163.119 82.7331 161.825 82.7331C157.15 82.7331 153.698 78.8497 152.907 74.4629C151.181 64.8263 166.571 58.4978 180.882 58.4978C192.245 58.4978 201.018 61.0148 202.816 71.0829C203.967 77.771 200.155 85.6097 191.813 90.2122L191.885 90.2842C201.522 90.2842 206.556 95.1744 207.706 101.287C209.576 111.787 199.94 126.026 182.464 126.026C172.396 126.026 163.479 123.437 162.76 119.41C162.4 117.468 163.191 115.67 165.636 114.879C167.218 116.03 168.729 116.893 170.311 117.684L172.54 70.9391C172.756 66.8399 176.064 65.4016 179.444 65.4016C181.098 65.4016 182.824 65.8331 184.046 66.5523L182.896 90.0684C190.015 87.911 194.186 79.1374 192.964 72.0897C191.813 65.4736 187.786 62.597 180.235 62.597ZM182.752 94.599L181.458 120.56H181.529C190.95 120.56 197.71 111.068 196.128 101.791C195.337 97.2599 192.173 94.0956 186.779 94.0956C185.485 94.0237 184.19 94.2395 182.752 94.599Z" fill="url(#paint0_linear_875_899)"/>
<path d="M224.606 101.143L225.11 100.999C229.281 99.705 234.027 91.7944 234.602 82.5173C235.969 81.7982 237.479 81.5825 238.845 81.5825C241.938 81.5825 243.951 83.5242 244.311 85.6816C245.246 90.8595 239.421 98.5543 234.387 102.15C236.544 107.04 240.859 117.18 247.475 117.18C249.345 117.18 251.071 115.598 253.084 113.513C254.163 113.944 254.882 114.735 255.026 115.598C255.098 116.173 254.954 116.893 254.523 117.54C251.862 121.351 246.396 126.17 242.585 126.17C233.38 126.17 228.561 112.29 226.044 105.53L224.462 105.962L223.887 120.704C223.671 124.731 220.435 126.17 217.127 126.17C215.473 126.17 213.819 125.738 212.596 125.019L214.25 91.6505C214.322 90.1403 213.747 89.4931 212.956 89.4931C212.524 89.4931 212.021 89.8527 211.302 90.4999C210.007 89.7807 208.857 87.1199 210.439 85.7535C213.172 83.3803 216.12 81.5825 220.004 81.5825C223.312 81.5825 225.397 82.9488 225.253 86.3288L224.606 101.143Z" fill="url(#paint1_linear_875_899)"/>
<path d="M253.3 91.6505C253.444 90.2841 252.797 89.4931 252.006 89.4931C251.574 89.4931 251.071 89.8527 250.352 90.4999C249.057 89.7807 247.907 87.1199 249.489 85.7535C252.221 83.3803 255.17 81.5825 259.053 81.5825C262.361 81.5825 264.519 83.0927 264.303 86.3288L263.009 111.355C262.865 114.016 263.944 116.102 266.964 116.102C269.625 116.102 271.71 114.879 273.508 113.009L274.875 87.048C275.09 83.0208 278.327 81.5825 281.635 81.5825C283.289 81.5825 284.943 82.0139 286.165 82.7331L284.439 117.108C284.367 118.331 284.295 119.553 284.224 120.704C288.826 118.331 293.285 115.742 296.018 113.153C297.6 114.304 298.175 116.173 296.881 117.468C295.442 118.834 289.905 122.79 283.936 125.594C282.57 141.775 278.83 158.819 262.505 158.819C257.399 158.819 250.783 155.367 249.561 148.104C247.619 137.101 259.197 131.851 273.293 125.45C273.58 123.365 273.724 121.207 274.084 118.834C271.279 123.077 267.611 125.954 263.081 125.954C254.019 125.954 251.934 117.468 252.365 109.342L253.3 91.6505ZM272.286 131.204C262.29 136.238 255.458 140.409 256.608 147.025C257.112 150.045 259.916 151.124 261.067 151.124C267.467 151.124 270.056 145.227 272.286 131.204Z" fill="url(#paint2_linear_875_899)"/>
<path d="M311.91 81.2229C319.318 81.2229 323.489 84.0276 324.495 89.6369C325.358 94.5271 322.698 96.7565 319.318 96.7565C318.095 96.7565 316.585 96.3969 315.434 95.5339C316.081 93.4484 316.153 91.0752 315.938 89.9246C315.65 88.2705 314.427 87.4076 312.126 87.4076C307.02 87.4076 302.633 96.6846 304.863 109.198C306.013 115.742 310.112 118.547 314.787 118.547C318.814 118.547 321.403 116.749 322.41 113.585C324.136 113.585 325.286 114.448 325.574 115.958C326.437 120.704 318.958 126.098 310.832 126.098C302.418 126.098 295.729 121.927 293.716 110.564C291.343 97.188 298.175 81.2229 311.91 81.2229Z" fill="url(#paint3_linear_875_899)"/>
<path d="M553.041 115.958C552.753 114.447 551.602 113.585 549.876 113.585C549.085 116.677 547.144 117.756 545.49 117.756C543.692 117.756 542.11 115.814 542.325 111.427L543.692 82.6612C542.469 81.942 540.815 81.5105 539.161 81.5105C536.86 81.5105 534.63 82.3016 533.336 84.0276C530.675 82.0859 527.511 81.151 523.412 81.151C510.683 81.151 502.988 96.2531 505.649 111.427C505.793 112.29 506.008 113.225 506.296 114.16C504.282 116.03 501.19 117.756 498.17 117.756C496.3 117.756 494.933 116.749 495.077 114.16L496.084 94.1675C496.659 84.0276 490.259 81.4386 486.16 81.4386C480.838 81.4386 476.883 85.1782 474.006 90.3561C473.215 84.1714 468.469 81.4386 464.729 81.4386C459.48 81.4386 455.524 85.0344 452.72 90.1403L452.935 86.2569C453.151 82.9488 450.994 81.5105 447.686 81.5105C443.802 81.5105 440.854 83.3084 438.121 85.6816C436.539 87.048 437.617 89.7807 438.984 90.428C439.703 89.7088 440.206 89.4212 440.638 89.4212C441.429 89.4212 442.076 90.2122 441.932 91.5786L441.069 109.126C437.977 114.088 430.354 118.475 423.738 118.475C419.495 118.475 415.827 116.749 414.101 112.074C430.138 102.797 433.231 96.9003 431.936 89.4931C431.217 85.6097 428.34 81.151 419.998 81.151C404.896 81.151 400.15 99.2016 402.163 110.492C402.379 111.787 402.739 112.937 403.098 114.088C401.085 116.03 397.921 117.827 394.828 117.827C392.455 117.827 390.729 116.245 390.945 111.427L392.167 85.0344C392.311 81.5825 372.463 80.8633 366.638 80.8633C361.388 80.8633 356.857 82.9488 357.792 88.3424C358.08 89.8527 358.943 91.3629 360.525 92.8012C362.035 90.7875 365.918 89.7088 370.737 88.9897C368.22 111.715 364.552 116.245 360.237 119.05C359.95 117.324 359.806 114.735 360.597 112.29C359.302 111.499 357.72 111.068 356.641 111.068C353.261 111.068 350.457 112.29 351.176 116.461C352.327 122.79 355.635 126.242 359.374 126.17C362.826 126.098 366.781 122.862 369.73 116.102C372.175 110.564 374.189 101.862 375.339 88.4863C377.209 88.3424 379.151 88.1986 380.949 88.1267L379.798 112.146C379.295 123.724 384.401 126.098 390.801 126.098C395.619 126.098 401.372 122.286 404.896 117.827C408.348 123.437 414.245 126.098 420.574 126.098C427.765 126.098 435.532 122.646 440.782 116.677L440.35 124.947C441.573 125.666 443.227 126.098 444.881 126.098C448.189 126.098 451.425 124.587 451.641 120.632L452.863 95.8935C454.877 93.0888 457.178 91.3629 460.486 91.3629C463.507 91.3629 463.722 93.7361 463.579 96.4688L462.212 124.947C463.435 125.666 465.089 126.098 466.743 126.098C470.051 126.098 473.287 124.587 473.503 120.632L474.725 95.3901C476.667 92.945 478.897 91.3629 481.989 91.3629C485.009 91.3629 485.369 93.7361 485.081 96.4688L484.29 113.728C483.787 123.868 489.036 126.026 493.639 126.026C499.464 126.026 504.642 122.43 508.094 118.187C510.179 122.286 513.847 126.026 519.96 126.026C525.21 126.026 529.381 122.358 532.329 117.252C533.48 124.084 538.082 126.026 542.397 126.026C547.287 126.098 554.119 121.999 553.041 115.958ZM421.724 87.9829C423.306 87.9829 424.601 89.3493 424.96 91.3629C425.967 96.9722 421.005 103.085 413.023 108.407C412.232 102.294 412.663 87.9829 421.724 87.9829ZM531.322 111.715C529.381 114.951 525.929 117.18 523.052 117.18C520.176 117.18 517.73 115.239 517.011 110.924C515.357 101.431 516.867 87.7671 527.942 87.7671C529.309 87.7671 530.747 87.911 532.401 88.4863L531.322 111.715Z" fill="url(#paint4_linear_875_899)"/>
<path d="M424.745 152.203C425.752 153.353 426.112 154.864 426.112 156.446C425.896 159.466 424.026 162.846 419.711 162.846C413.455 162.846 407.63 160.761 401.229 160.401C409.284 165.435 419.567 172.195 421.437 183.054C423.667 195.567 418.776 213.618 405.113 213.618C395.548 213.618 390.586 206.786 389.219 198.803C387.062 186.722 393.75 171.332 406.91 171.332C407.989 171.332 409.068 171.404 410.003 171.62C405.4 167.161 399 164.356 395.116 162.055C394.325 157.74 393.678 152.131 402.164 152.131C411.01 152.203 419.208 153.641 424.745 152.203ZM413.958 176.582C412.448 176.222 411.081 176.222 409.859 176.222C401.948 176.222 399.072 187.872 400.51 196.215C401.301 200.673 403.53 204.125 407.342 204.125C415.324 204.125 417.194 189.886 415.756 181.472C415.396 179.674 414.749 178.02 413.958 176.582Z" fill="#FBFF4F"/>
<path d="M454.662 171.62C455.885 169.894 458.186 169.103 460.487 169.103C462.141 169.103 463.795 169.534 465.018 170.253L463.651 199.019C463.436 203.909 465.162 205.42 467.535 205.42C470.915 205.42 474.51 203.262 476.38 201.105C477.459 201.536 478.178 202.327 478.322 203.19C478.394 203.766 478.25 204.485 477.819 205.132C474.295 209.735 468.398 213.762 463.436 213.762C459.121 213.762 454.446 211.82 453.368 204.988C450.419 210.094 446.176 213.762 440.998 213.762C431.434 213.762 427.91 204.701 426.975 199.163C424.314 183.989 432.009 168.887 444.738 168.887C448.837 168.743 452.073 169.678 454.662 171.62ZM453.583 175.935C451.929 175.431 450.491 175.215 449.125 175.215C438.05 175.215 436.539 188.951 438.194 198.372C438.985 202.687 441.43 204.629 444.234 204.629C447.183 204.629 450.635 202.399 452.505 199.163L453.583 175.935Z" fill="#FBFF4F"/>
<path d="M497.451 200.026L497.811 191.612C494.503 192.619 490.547 193.554 486.52 193.698L485.801 208.224C485.585 212.252 482.637 213.69 479.329 213.69C477.674 213.69 476.02 213.258 474.798 212.539L476.524 179.171C476.668 177.804 476.02 177.013 475.229 177.013C474.798 177.013 474.294 177.373 473.575 178.02C472.281 177.301 471.13 174.64 472.712 173.274C475.445 170.901 478.394 169.103 482.277 169.103C485.585 169.103 487.743 170.613 487.527 173.849L486.736 187.729C490.835 187.657 494.574 187.369 497.954 187.009L498.602 174.496C498.817 170.469 501.694 169.031 505.002 169.031C506.656 169.031 508.31 169.462 509.533 170.181L508.166 198.947C507.951 203.838 509.677 205.348 512.05 205.348C515.43 205.348 519.025 203.19 520.895 201.033C521.974 201.464 522.693 202.255 522.837 203.118C522.909 203.694 522.765 204.413 522.334 205.06C518.81 209.663 514.423 213.69 508.238 213.69C503.708 213.618 496.948 211.245 497.451 200.026Z" fill="#FBFF4F"/>
<path d="M554.551 184.277C556.852 197.221 549.948 213.618 535.493 213.618C526.073 213.618 520.751 206.426 519.313 198.228C517.011 185.14 523.771 168.671 537.579 168.671C547.647 168.743 553.113 175.791 554.551 184.277ZM530.603 195.495C531.97 203.118 535.206 206.067 538.442 206.067C545.705 206.067 549.229 192.691 547.575 183.558C546.712 178.883 544.555 175.287 540.815 175.287C532.473 175.359 529.093 187.009 530.603 195.495Z" fill="#FBFF4F"/>
<path d="M580.728 200.026L581.016 192.978C578.499 196.718 574.975 198.444 571.307 198.444C561.095 198.444 559.945 190.03 560.304 183.486L560.52 179.171C560.664 177.804 560.017 177.013 559.225 177.013C558.794 177.013 558.291 177.373 557.571 178.02C556.277 177.301 555.126 174.64 556.708 173.274C559.441 170.901 562.39 169.103 566.273 169.103C569.581 169.103 571.739 170.613 571.523 173.849L570.948 185.068C570.732 188.664 572.242 190.174 574.975 190.174C577.636 190.174 579.577 188.664 581.303 186.362L581.879 174.568C582.094 170.541 584.971 169.103 588.279 169.103C589.933 169.103 591.587 169.534 592.81 170.253L591.443 199.019C591.228 203.909 592.953 205.42 595.327 205.42C598.707 205.42 602.302 203.262 604.172 201.105C605.251 201.536 605.97 202.327 606.114 203.19C606.186 203.766 606.042 204.485 605.61 205.132C602.087 209.735 597.7 213.762 591.515 213.762C586.985 213.618 580.225 211.245 580.728 200.026Z" fill="#FBFF4F"/>
<path d="M614.744 188.735L615.247 188.592C619.418 187.297 624.165 179.387 624.74 170.11C626.106 169.39 627.617 169.175 628.983 169.175C632.075 169.175 634.089 171.116 634.448 173.274C635.383 178.452 629.558 186.146 624.524 189.742C626.682 194.632 630.997 204.772 637.613 204.772C639.411 204.772 641.208 203.19 643.222 201.105C644.301 201.536 645.02 202.327 645.164 203.19C645.236 203.766 645.092 204.485 644.66 205.132C641.999 208.943 636.534 213.762 632.723 213.762C623.517 213.762 618.699 199.882 616.182 193.122L614.6 193.554L614.025 208.296C613.809 212.323 610.573 213.762 607.265 213.762C605.611 213.762 603.957 213.33 602.734 212.611L604.388 179.243C604.46 177.732 603.885 177.085 603.094 177.085C602.662 177.085 602.159 177.445 601.44 178.092C600.145 177.373 598.994 174.712 600.577 173.346C603.309 170.972 606.258 169.175 610.141 169.175C613.449 169.175 615.535 170.541 615.391 173.921L614.744 188.735Z" fill="#FBFF4F"/>
<path d="M653.65 199.666C655.376 204.341 659.115 206.067 663.286 206.067C669.903 206.067 677.526 201.608 680.618 196.718C682.919 196.286 684.142 198.084 683.423 199.666C678.676 208.44 668.896 213.618 660.05 213.618C651.421 213.618 643.582 208.728 641.712 198.084C639.698 186.794 644.445 168.743 659.547 168.743C667.889 168.743 670.766 173.202 671.485 177.085C672.779 184.492 669.687 190.389 653.65 199.666ZM652.715 195.927C660.698 190.605 665.66 184.564 664.653 178.883C664.293 176.869 662.927 175.503 661.417 175.503C652.355 175.503 651.924 189.886 652.715 195.927Z" fill="#FBFF4F"/>
<path d="M690.111 202.903C693.707 202.903 696.943 205.563 697.302 209.015C697.59 212.395 695.145 215.128 691.621 215.128C688.025 215.128 684.789 212.467 684.501 209.015C684.07 205.563 686.515 202.903 690.111 202.903ZM694.785 193.482C694.498 196.143 692.412 197.221 690.111 197.221C689.032 197.221 687.881 196.862 687.018 196.43L688.169 152.49C688.385 148.391 691.693 146.953 695.073 146.953C696.727 146.953 698.453 147.384 699.675 148.104L694.785 193.482Z" fill="#FBFF4F"/>
<path d="M24.18 181.832C25.906 181.256 27.7758 180.897 29.5017 180.897C34.4638 180.897 38.6349 184.492 39.2102 190.03C40.4328 203.118 29.7175 214.697 18.1392 214.697C13.3928 214.697 9.22177 212.323 6.77666 206.426C4.25965 207.002 1.23923 205.563 0.232422 202.759C2.24603 202.327 3.68433 201.392 4.9788 200.098C4.83497 199.379 4.83497 198.732 4.69114 198.012C2.38986 179.602 6.56092 151.987 23.8924 151.987C29.5017 151.987 33.3851 154.864 34.0324 160.401C34.6077 165.435 31.0838 171.907 24.18 181.832ZM14.7592 187.944C24.2519 173.705 27.9915 165.723 27.4881 161.264C27.1285 158.747 26.4813 157.237 24.6115 157.237C18.0673 157.309 15.0469 174.928 14.7592 187.944ZM21.8068 184.996C19.7213 187.872 17.42 190.965 14.903 194.345C14.9749 195.136 14.9749 195.855 15.1188 196.502C16.1256 204.988 19.2898 207.361 22.3822 207.361C30.7243 207.361 31.2277 193.482 28.423 188.448C27.0566 186.29 24.7554 185.212 21.8068 184.996Z" fill="#FBFF4F"/>
<path d="M77.4684 189.742L77.9718 189.598C82.1429 188.304 86.8893 180.393 87.4646 171.116C88.831 170.397 90.3412 170.181 91.7075 170.181C94.7999 170.181 96.8135 172.123 97.1731 174.281C98.108 179.458 92.2829 187.153 87.2488 190.749C89.4063 195.639 93.7212 205.779 100.337 205.779C102.135 205.779 103.933 204.197 105.947 202.112C107.025 202.543 107.745 203.334 107.888 204.197C107.96 204.772 107.816 205.492 107.385 206.139C104.724 209.95 99.2586 214.769 95.4471 214.769C86.242 214.769 81.4237 200.889 78.9067 194.129L77.3246 194.561L76.7493 209.303C76.5335 213.33 73.2974 214.769 69.9893 214.769C68.3353 214.769 66.6812 214.337 65.4587 213.618L67.1127 180.249C67.1846 178.739 66.6093 178.092 65.8182 178.092C65.3867 178.092 64.8833 178.452 64.1642 179.099C62.8697 178.38 61.7191 175.719 63.3012 174.352C66.034 171.979 68.9825 170.181 72.8659 170.181C76.174 170.181 78.2595 171.548 78.1157 174.928L77.4684 189.742Z" fill="#FBFF4F"/>
<path d="M141.257 199.954C141.041 204.413 142.552 206.283 144.421 206.283C146.075 206.283 148.017 205.276 148.808 202.112C150.534 202.112 151.685 202.975 151.972 204.485C153.051 210.598 146.219 214.625 141.113 214.625C136.798 214.625 132.124 212.683 131.045 205.851C128.097 210.957 123.854 214.625 118.676 214.625C109.111 214.625 105.587 205.563 104.653 200.026C101.992 184.852 109.687 169.75 122.416 169.75C126.515 169.75 129.751 170.685 132.34 172.627C133.562 170.901 135.864 170.11 138.165 170.11C139.819 170.11 141.473 170.541 142.695 171.26L141.257 199.954ZM130.182 200.242L131.189 176.941C129.535 176.438 128.097 176.222 126.73 176.222C115.656 176.222 114.145 189.958 115.799 199.379C116.59 203.694 119.036 205.635 121.84 205.635C124.789 205.707 128.241 203.406 130.182 200.242Z" fill="#FBFF4F"/>
<path d="M164.054 209.447C168.369 209.447 173.835 202.687 170.742 184.78C169.663 178.811 166.787 175.935 164.054 175.935C161.393 175.935 159.236 177.589 158.013 180.537C156.359 180.897 154.849 178.524 155.065 177.517C156.647 171.548 161.465 170.11 166.859 170.11C173.187 170.11 178.293 175.647 179.516 182.695C179.947 184.924 180.163 187.009 180.235 188.951L185.053 174.784C186.348 171.116 187.642 170.11 190.519 170.11C191.813 170.11 193.18 170.541 194.114 171.26L192.532 199.882L197.494 185.355C199.364 177.157 203.967 170.038 211.518 170.038C218.062 170.038 221.658 172.483 222.665 178.092C223.528 182.982 220.939 185.355 217.487 185.212C216.264 185.14 214.97 184.78 213.603 183.989C214.251 181.904 214.323 179.53 214.107 178.38C213.747 176.366 213.028 175.359 212.021 175.359C206.7 175.359 204.398 184.636 206.7 197.653C208.066 205.276 211.014 208.512 214.107 208.512C220.22 208.512 225.901 202.615 227.842 197.653C230.216 197.221 231.51 199.019 230.647 200.601C227.411 210.31 220.004 214.553 212.956 214.553C206.268 214.553 199.148 210.31 197.207 199.019C197.063 198.084 196.991 197.078 196.847 196.071L192.101 209.878C190.806 213.546 189.512 214.553 186.635 214.553C185.341 214.553 183.974 214.121 183.04 213.402L184.478 184.852L179.444 199.451C176.999 210.238 169.304 214.553 161.825 214.553C157.15 214.553 152.188 211.46 151.038 204.844C150.318 200.673 153.051 199.307 156.503 199.307C157.726 199.307 159.38 199.81 160.53 200.673C159.38 202.04 159.523 203.622 159.667 204.557C160.243 207.577 162.04 209.447 164.054 209.447Z" fill="#FBFF4F"/>
<path d="M263.225 214.121C261.93 230.302 258.55 247.346 242.657 247.346C237.048 247.346 231.223 243.894 229.928 236.631C228.058 225.843 240.859 217.645 252.509 213.258C252.797 211.101 253.013 208.943 253.3 206.498C250.352 211.245 246.253 214.553 241.362 214.553C231.798 214.553 228.274 205.492 227.339 199.954C224.678 184.78 232.373 169.678 245.102 169.678C249.201 169.678 252.365 170.613 254.954 172.555C256.177 170.829 258.55 170.038 260.851 170.038C262.505 170.038 264.159 170.469 265.382 171.188L263.728 205.563C263.656 206.786 263.584 208.009 263.512 209.159C268.115 206.786 272.573 204.197 275.306 201.608C276.888 202.759 277.464 204.629 276.169 205.923C274.731 207.361 269.194 211.245 263.225 214.121ZM251.646 219.443C242.225 223.255 234.962 229.799 235.969 235.624C236.472 238.644 239.277 239.723 240.428 239.723C246.828 239.651 249.489 233.682 251.646 219.443ZM254.019 176.941C252.365 176.438 250.927 176.222 249.561 176.222C238.486 176.222 236.976 189.958 238.63 199.379C239.421 203.694 241.866 205.635 244.671 205.635C247.619 205.635 251.071 203.406 252.941 200.17L254.019 176.941Z" fill="#FBFF4F"/>
<path d="M316.369 179.027C314.356 180.969 311.479 184.996 308.099 187.297C308.243 187.657 308.315 188.016 308.387 188.232C310.76 201.536 300.117 214.625 289.114 214.625C279.693 214.625 274.371 207.433 272.933 199.235C270.632 186.146 277.391 169.678 291.199 169.678C295.802 169.678 299.685 170.901 303.137 174.784C303.281 176.798 301.914 177.732 300.476 177.229C298.606 176.654 296.665 176.294 294.435 176.294C286.093 176.294 282.713 187.944 284.223 196.43C285.59 204.053 288.826 207.002 292.062 207.002C296.737 207.002 301.483 200.601 300.117 192.763C299.901 191.612 299.541 190.389 299.038 189.167C297.384 189.095 295.73 188.735 294.651 188.16C291.918 183.414 293.141 179.027 298.391 179.027C301.483 179.027 304.431 180.537 306.373 183.054C309.681 180.897 312.414 177.157 315.722 174.209C317.52 175.647 317.448 178.02 316.369 179.027Z" fill="#FBFF4F"/>
<path d="M319.318 180.178C319.462 178.811 318.814 178.02 318.023 178.02C317.592 178.02 317.088 178.38 316.369 179.027C315.075 178.308 313.924 175.647 315.506 174.281C318.239 171.907 321.188 170.11 325.071 170.11C328.379 170.11 330.465 171.62 330.321 174.856L329.098 199.523C328.882 203.118 330.393 204.629 333.125 204.629C336.362 204.629 338.807 202.903 340.748 200.098L341.899 175.503C342.115 171.476 345.351 170.038 348.659 170.038C350.313 170.038 351.967 170.469 353.19 171.188L351.823 199.954C351.607 204.413 353.118 206.283 354.987 206.283C356.642 206.283 358.583 205.276 359.374 202.112C361.1 202.112 362.251 202.975 362.539 204.485C363.617 210.597 356.785 214.625 351.679 214.625C347.221 214.625 342.33 212.467 341.396 204.844C338.735 210.454 334.995 214.625 329.745 214.625C319.534 214.625 317.808 204.485 318.167 197.941L319.318 180.178ZM334.708 167.017C328.307 167.017 324.639 162.774 323.848 158.603C323.201 154.792 325.215 151.196 330.249 151.196C331.687 151.196 332.694 151.34 334.06 152.059C333.773 152.85 333.701 153.641 333.845 154.648C334.276 157.237 336.362 158.531 338.735 158.531C341.755 158.531 345.135 156.302 346.142 151.484C347.724 151.196 349.953 152.059 349.953 154.432C350.457 160.689 344.488 167.017 334.708 167.017Z" fill="#FBFF4F"/>
<path d="M27.2005 183.414C28.9265 182.838 30.7963 182.479 32.5222 182.479C37.4843 182.479 41.6554 186.075 42.2307 191.612C43.4533 204.701 32.738 216.279 21.1597 216.279C16.4133 216.279 12.2423 213.906 9.79717 208.009C7.28016 208.584 4.25974 207.146 3.25293 204.341C5.26654 203.909 6.70484 202.975 7.9993 201.68C7.85547 200.961 7.85547 200.314 7.71164 199.595C5.41037 181.184 9.58143 153.569 26.9129 153.569C32.5222 153.569 36.4056 156.446 37.0529 161.983C37.7001 167.017 34.1763 173.561 27.2005 183.414ZM17.8516 189.598C27.3444 175.359 31.0839 167.377 30.5805 162.918C30.221 160.401 29.5737 158.891 27.7039 158.891C21.1597 158.963 18.1393 176.582 17.8516 189.598ZM24.8274 186.65C22.7418 189.527 20.4406 192.619 17.9235 195.999C17.9955 196.79 17.9955 197.509 18.1393 198.156C19.1461 206.642 22.3103 209.015 25.4027 209.015C33.7448 209.015 34.2482 195.136 31.4435 190.102C30.0771 187.944 27.7759 186.794 24.8274 186.65Z" fill="url(#paint5_linear_875_899)"/>
<path d="M80.4889 191.324L80.9923 191.181C85.1634 189.886 89.9098 181.975 90.4851 172.698C91.8515 171.979 93.3617 171.764 94.7281 171.764C97.8204 171.764 99.834 173.705 100.194 175.863C101.128 181.041 95.3034 188.735 90.2693 192.331C92.4268 197.221 96.7417 207.361 103.358 207.361C105.156 207.361 106.954 205.779 108.967 203.694C110.046 204.125 110.765 204.916 110.909 205.779C110.981 206.355 110.837 207.074 110.405 207.721C107.745 211.532 102.279 216.351 98.4676 216.351C89.2625 216.351 84.4442 202.471 81.9272 195.711L80.3451 196.143L79.7698 210.885C79.554 214.912 76.3179 216.351 73.0098 216.351C71.3558 216.351 69.7017 215.919 68.4792 215.2L70.1332 181.832C70.2051 180.321 69.6298 179.674 68.8387 179.674C68.4073 179.674 67.9039 180.034 67.1847 180.681C65.8902 179.962 64.7396 177.301 66.3217 175.935C69.0545 173.561 72.003 171.764 75.8864 171.764C79.1945 171.764 81.28 173.13 81.1362 176.51L80.4889 191.324Z" fill="url(#paint6_linear_875_899)"/>
<path d="M144.278 201.608C144.062 206.067 145.572 207.937 147.442 207.937C149.096 207.937 151.038 206.93 151.829 203.766C153.555 203.766 154.705 204.629 154.993 206.139C156.072 212.252 149.24 216.279 144.134 216.279C139.819 216.279 135.145 214.337 134.066 207.505C131.117 212.611 126.874 216.279 121.696 216.279C112.132 216.279 108.608 207.217 107.673 201.68C105.012 186.506 112.707 171.404 125.436 171.404C129.535 171.404 132.771 172.339 135.36 174.281C136.583 172.555 138.884 171.764 141.185 171.764C142.839 171.764 144.493 172.195 145.716 172.914L144.278 201.608ZM133.275 201.824L134.282 178.524C132.628 178.02 131.189 177.804 129.823 177.804C118.748 177.804 117.238 191.54 118.892 200.961C119.683 205.276 122.128 207.218 124.933 207.218C127.881 207.289 131.333 205.06 133.275 201.824Z" fill="url(#paint7_linear_875_899)"/>
<path d="M167.147 211.029C171.462 211.029 176.927 204.269 173.835 186.362C172.756 180.393 169.88 177.517 167.147 177.517C164.486 177.517 162.329 179.171 161.106 182.119C159.452 182.479 157.942 180.106 158.158 179.099C159.74 173.13 164.558 171.692 169.952 171.692C176.28 171.692 181.386 177.229 182.609 184.277C183.04 186.506 183.256 188.592 183.328 190.533L188.146 176.366C189.44 172.698 190.735 171.692 193.611 171.692C194.906 171.692 196.272 172.123 197.207 172.842L195.625 201.464L200.587 186.938C202.457 178.739 207.06 171.62 214.611 171.62C221.155 171.62 224.751 174.065 225.757 179.674C226.62 184.564 224.031 186.938 220.58 186.794C219.357 186.722 218.063 186.362 216.696 185.571C217.343 183.486 217.415 181.112 217.2 179.962C216.84 177.948 216.121 176.941 215.114 176.941C209.792 176.941 207.491 186.218 209.792 199.235C211.159 206.858 214.107 210.094 217.2 210.094C223.312 210.094 228.994 204.197 230.935 199.235C233.308 198.803 234.603 200.601 233.74 202.183C230.504 211.892 223.097 216.135 216.049 216.135C209.361 216.135 202.241 211.892 200.3 200.601C200.156 199.666 200.084 198.66 199.94 197.653L195.194 211.46C193.899 215.128 192.605 216.135 189.728 216.135C188.434 216.135 187.067 215.703 186.132 214.984L187.571 186.434L182.537 201.033C180.092 211.82 172.397 216.135 164.918 216.135C160.243 216.135 155.281 213.043 154.13 206.426C153.411 202.255 156.144 200.889 159.596 200.889C160.818 200.889 162.472 201.392 163.623 202.255C162.472 203.622 162.616 205.204 162.76 206.139C163.335 209.231 165.133 211.029 167.147 211.029Z" fill="url(#paint8_linear_875_899)"/>
<path d="M266.245 215.703C264.951 231.884 261.571 248.928 245.677 248.928C240.068 248.928 234.243 245.476 232.949 238.213C231.079 227.426 243.88 219.227 255.53 214.84C255.817 212.683 256.033 210.526 256.321 208.08C253.372 212.827 249.273 216.135 244.383 216.135C234.818 216.135 231.295 207.074 230.36 201.536C227.699 186.362 235.394 171.26 248.123 171.26C252.222 171.26 255.386 172.195 257.975 174.137C259.197 172.411 261.571 171.62 263.872 171.62C265.526 171.62 267.18 172.051 268.403 172.77L266.748 207.146C266.677 208.368 266.605 209.591 266.533 210.741C271.135 208.368 275.594 205.779 278.327 203.19C279.909 204.341 280.484 206.211 279.19 207.505C277.823 208.943 272.286 212.899 266.245 215.703ZM254.739 221.025C245.318 224.837 238.054 231.381 239.061 237.206C239.565 240.226 242.369 241.305 243.52 241.305C249.848 241.233 252.581 235.264 254.739 221.025ZM257.04 178.595C255.386 178.092 253.948 177.876 252.581 177.876C241.506 177.876 239.996 191.612 241.65 201.033C242.441 205.348 244.886 207.289 247.691 207.289C250.64 207.289 254.091 205.06 255.961 201.824L257.04 178.595Z" fill="url(#paint9_linear_875_899)"/>
<path d="M319.39 180.681C317.376 182.623 314.5 186.65 311.12 188.951C311.263 189.311 311.335 189.67 311.407 189.886C313.78 203.19 303.137 216.279 292.134 216.279C282.713 216.279 277.392 209.087 275.953 200.889C273.652 187.801 280.412 171.332 294.22 171.332C298.822 171.332 302.706 172.555 306.157 176.438C306.301 178.452 304.935 179.387 303.497 178.883C301.627 178.308 299.685 177.948 297.456 177.948C289.114 177.948 285.734 189.598 287.244 198.084C288.61 205.707 291.846 208.656 295.083 208.656C299.757 208.656 304.503 202.255 303.137 194.417C302.921 193.266 302.562 192.044 302.058 190.821C300.404 190.749 298.75 190.389 297.672 189.814C294.939 185.068 296.161 180.681 301.411 180.681C304.503 180.681 307.452 182.191 309.394 184.708C312.702 182.551 315.434 178.811 318.743 175.863C320.54 177.229 320.54 179.602 319.39 180.681Z" fill="url(#paint10_linear_875_899)"/>
<path d="M322.338 181.76C322.482 180.393 321.835 179.602 321.044 179.602C320.612 179.602 320.109 179.962 319.39 180.609C318.095 179.89 316.945 177.229 318.527 175.863C321.26 173.49 324.208 171.692 328.091 171.692C331.4 171.692 333.485 173.202 333.341 176.438L332.119 201.105C331.903 204.701 333.413 206.211 336.146 206.211C339.382 206.211 341.827 204.485 343.769 201.68L344.92 177.085C345.135 173.058 348.371 171.62 351.68 171.62C353.334 171.62 354.988 172.051 356.21 172.77L354.844 201.536C354.628 205.995 356.138 207.865 358.008 207.865C359.662 207.865 361.604 206.858 362.395 203.694C364.121 203.694 365.271 204.557 365.559 206.067C366.638 212.18 359.806 216.207 354.7 216.207C350.241 216.207 345.351 214.049 344.416 206.426C341.755 212.036 338.016 216.207 332.766 216.207C322.554 216.207 320.828 206.067 321.188 199.523L322.338 181.76ZM337.728 168.671C331.328 168.671 327.66 164.428 326.869 160.257C326.222 156.446 328.235 152.85 333.269 152.85C334.708 152.85 335.714 152.994 337.081 153.713C336.793 154.504 336.721 155.295 336.865 156.302C337.297 158.891 339.382 160.185 341.755 160.185C344.776 160.185 348.156 157.956 349.162 153.138C350.745 152.85 352.974 153.713 352.974 156.086C353.477 162.343 347.58 168.671 337.728 168.671Z" fill="url(#paint11_linear_875_899)"/>
<path d="M427.837 153.785C428.844 154.936 429.203 156.446 429.203 158.028C428.988 161.048 427.118 164.428 422.803 164.428C416.546 164.428 410.721 162.343 404.321 161.983C412.375 167.017 422.659 173.777 424.529 184.636C426.758 197.149 421.868 215.2 408.204 215.2C398.64 215.2 393.678 208.368 392.311 200.386C390.154 188.304 396.842 172.914 410.002 172.914C411.081 172.914 412.16 172.986 413.095 173.202C408.492 168.743 402.092 165.938 398.208 163.637C397.417 159.322 396.77 153.713 405.256 153.713C414.029 153.785 422.3 155.295 427.837 153.785ZM416.978 178.164C415.468 177.804 414.101 177.804 412.879 177.804C404.968 177.804 402.092 189.455 403.53 197.797C404.321 202.255 406.55 205.707 410.362 205.707C418.344 205.707 420.214 191.468 418.776 183.054C418.488 181.328 417.769 179.674 416.978 178.164Z" fill="url(#paint12_linear_875_899)"/>
<path d="M457.754 173.274C458.976 171.548 461.278 170.757 463.579 170.757C465.233 170.757 466.887 171.188 468.11 171.907L466.743 200.673C466.527 205.563 468.253 207.074 470.627 207.074C474.007 207.074 477.602 204.916 479.472 202.759C480.551 203.19 481.27 203.981 481.414 204.844C481.486 205.42 481.342 206.139 480.91 206.786C477.387 211.389 471.49 215.416 466.527 215.416C462.213 215.416 457.538 213.474 456.459 206.642C453.511 211.748 449.268 215.416 444.09 215.416C434.525 215.416 431.002 206.355 430.067 200.817C427.406 185.643 435.101 170.541 447.83 170.541C451.929 170.397 455.093 171.332 457.754 173.274ZM456.675 177.589C455.021 177.085 453.583 176.87 452.216 176.87C441.142 176.87 439.631 190.605 441.285 200.026C442.076 204.341 444.522 206.283 447.326 206.283C450.275 206.283 453.727 204.053 455.596 200.817L456.675 177.589Z" fill="url(#paint13_linear_875_899)"/>
<path d="M500.544 201.608L500.903 193.194C497.595 194.201 493.64 195.136 489.613 195.28L488.894 209.806C488.678 213.834 485.729 215.272 482.421 215.272C480.767 215.272 479.113 214.84 477.891 214.121L479.617 180.753C479.76 179.387 479.113 178.595 478.322 178.595C477.891 178.595 477.387 178.955 476.668 179.602C475.374 178.883 474.223 176.222 475.805 174.856C478.538 172.483 481.486 170.685 485.37 170.685C488.678 170.685 490.835 172.195 490.62 175.431L489.829 189.311C493.928 189.239 497.667 188.951 501.047 188.592L501.694 176.078C501.91 172.051 504.787 170.613 508.095 170.613C509.749 170.613 511.403 171.044 512.625 171.764L511.259 200.529C511.043 205.42 512.769 206.93 515.142 206.93C518.522 206.93 522.118 204.772 523.988 202.615C525.067 203.046 525.786 203.838 525.93 204.701C526.002 205.276 525.858 205.995 525.426 206.642C521.902 211.245 517.516 215.272 511.331 215.272C506.8 215.272 500.04 212.827 500.544 201.608Z" fill="url(#paint14_linear_875_899)"/>
<path d="M557.644 185.931C559.945 198.875 553.041 215.272 538.586 215.272C529.165 215.272 523.844 208.08 522.405 199.882C520.104 186.794 526.864 170.325 540.672 170.325C550.668 170.397 556.133 177.373 557.644 185.931ZM533.696 197.149C535.062 204.772 538.299 207.721 541.535 207.721C548.798 207.721 552.322 194.345 550.668 185.212C549.805 180.537 547.648 176.941 543.908 176.941C535.494 176.941 532.186 188.592 533.696 197.149Z" fill="url(#paint15_linear_875_899)"/>
<path d="M583.821 201.608L584.108 194.561C581.591 198.3 578.068 200.026 574.4 200.026C564.188 200.026 563.037 191.612 563.397 185.068L563.613 180.753C563.757 179.387 563.109 178.595 562.318 178.595C561.887 178.595 561.383 178.955 560.664 179.602C559.37 178.883 558.219 176.222 559.801 174.856C562.534 172.483 565.483 170.685 569.366 170.685C572.674 170.685 574.831 172.195 574.616 175.431L574.04 186.65C573.825 190.246 575.335 191.756 578.068 191.756C580.728 191.756 582.67 190.246 584.396 187.944L584.971 176.15C585.187 172.123 588.064 170.685 591.372 170.685C593.026 170.685 594.68 171.116 595.902 171.835L594.536 200.601C594.32 205.492 596.046 207.002 598.419 207.002C601.799 207.002 605.395 204.844 607.265 202.687C608.344 203.118 609.063 203.909 609.207 204.772C609.279 205.348 609.135 206.067 608.703 206.714C605.179 211.317 600.793 215.344 594.608 215.344C590.077 215.272 583.317 212.827 583.821 201.608Z" fill="url(#paint16_linear_875_899)"/>
<path d="M617.837 190.318L618.34 190.174C622.511 188.879 627.257 180.969 627.833 171.692C629.199 170.972 630.709 170.757 632.076 170.757C635.168 170.757 637.182 172.698 637.541 174.856C638.476 180.034 632.651 187.729 627.617 191.324C629.774 196.215 634.089 206.355 640.705 206.355C642.503 206.355 644.301 204.772 646.315 202.687C647.394 203.118 648.113 203.909 648.257 204.772C648.328 205.348 648.185 206.067 647.753 206.714C645.092 210.526 639.627 215.344 635.815 215.344C626.61 215.344 621.792 201.464 619.275 194.704L617.693 195.136L617.117 209.878C616.902 213.906 613.666 215.344 610.357 215.344C608.703 215.344 607.049 214.912 605.827 214.193L607.481 180.825C607.553 179.315 606.977 178.667 606.186 178.667C605.755 178.667 605.252 179.027 604.532 179.674C603.238 178.955 602.087 176.294 603.669 174.928C606.402 172.555 609.351 170.757 613.234 170.757C616.542 170.757 618.628 172.123 618.484 175.503L617.837 190.318Z" fill="url(#paint17_linear_875_899)"/>
<path d="M656.742 201.32C658.468 205.995 662.207 207.721 666.378 207.721C672.994 207.721 680.617 203.262 683.71 198.372C686.011 197.94 687.234 199.738 686.514 201.32C681.768 210.094 671.988 215.272 663.142 215.272C654.512 215.272 646.674 210.382 644.804 199.738C642.79 188.448 647.537 170.397 662.639 170.397C670.981 170.397 673.857 174.856 674.577 178.739C675.871 186.075 672.779 191.972 656.742 201.32ZM655.807 197.581C663.789 192.259 668.751 186.218 667.745 180.537C667.385 178.524 666.019 177.157 664.509 177.157C655.375 177.157 655.016 191.468 655.807 197.581Z" fill="url(#paint18_linear_875_899)"/>
<path d="M693.131 204.485C696.727 204.485 699.963 207.146 700.323 210.598C700.61 213.978 698.165 216.71 694.641 216.71C691.046 216.71 687.81 214.049 687.522 210.598C687.09 207.218 689.536 204.485 693.131 204.485ZM697.806 195.136C697.518 197.797 695.433 198.875 693.131 198.875C692.053 198.875 690.902 198.516 690.039 198.084L691.19 154.144C691.405 150.045 694.713 148.607 698.093 148.607C699.747 148.607 701.473 149.039 702.696 149.758L697.806 195.136Z" fill="url(#paint19_linear_875_899)"/>
<path d="M601.296 105.53C595.759 103.228 590.869 100.352 586.338 96.6841C585.044 95.6054 583.893 95.5335 582.886 96.3964C581.664 97.4752 581.304 98.9854 582.023 100.424C582.599 101.502 583.39 102.509 583.965 103.156C584.181 103.372 584.325 103.588 584.396 103.732L584.54 103.876C589.718 108.982 596.478 111.139 601.081 109.125C602.303 108.55 603.022 107.831 603.022 107.184C602.95 106.536 602.303 105.961 601.296 105.53Z" fill="#FBFF4F"/>
<path d="M611.724 75.5412C611.653 75.3973 611.581 75.3254 611.509 75.1816C611.221 74.8939 610.646 74.6782 609.927 74.6063C605.252 73.8152 600.362 73.7433 595.687 73.6714C594.105 73.6714 592.451 73.5995 590.797 73.5995C589.862 73.5995 588.136 73.8152 587.561 75.6131C587.13 76.9075 587.561 78.0582 588.927 79.2807C589.143 79.4246 589.287 79.5684 589.431 79.7122C591.444 81.3662 595.4 82.2292 599.643 82.0854C603.958 81.8697 607.985 80.6471 610.142 78.7773L610.358 78.5616C610.933 77.6267 612.012 76.3322 611.724 75.5412Z" fill="#FBFF4F"/>
<path d="M506.872 43.7548C505.722 41.2378 502.27 38.3612 497.883 36.5634C493.424 34.7655 488.606 34.2621 485.442 35.0532L485.082 35.197C481.774 36.06 482.709 38.7208 483.428 39.1523C486.449 41.8131 491.483 42.0289 496.229 44.3302C497.811 45.1212 500.328 46.6314 501.91 47.4225C502.845 47.9259 504.859 49.7238 506.585 48.5731C507.735 47.4944 507.879 46.128 507.232 44.3302C507.016 44.1863 506.944 43.9706 506.872 43.7548Z" fill="#FBFF4F"/>
<path d="M568.216 36.9949C569.223 37.9297 570.445 38.0736 572.099 37.4263C572.315 37.3544 572.531 37.2106 572.746 37.1387C575.12 36.06 577.709 32.9676 579.435 29.0842C581.232 25.1289 581.88 20.9579 581.16 18.2251L581.017 17.9374C580.585 17.0026 579.866 15.4204 579.075 15.3485C578.931 15.3485 578.787 15.3485 578.643 15.4204C578.284 15.5643 577.852 15.9238 577.349 16.5711C574.544 20.3825 572.243 24.6974 570.086 28.8685C569.366 30.3068 568.575 31.7451 567.784 33.1834C567.353 34.0463 566.777 35.6285 568.216 36.9949Z" fill="#FBFF4F"/>
<path d="M601.871 49.7957C601.943 49.6519 601.943 49.508 602.015 49.3642C602.375 48.2136 602.519 47.4225 601.943 46.7033C601.224 45.7685 600.145 45.5527 599.211 46.1999C595.974 48.2136 592.522 49.3642 588.855 50.5867C587.848 50.9463 586.841 51.234 585.906 51.5936C585.187 51.8812 584.252 52.4565 584.036 53.751C583.965 54.1825 583.965 54.614 584.108 55.0455C584.468 56.6995 585.403 57.6344 586.985 57.7063C592.81 57.3467 600.217 55.6208 601.871 49.7957Z" fill="#FBFF4F"/>
<path d="M543.117 22.3242C543.333 23.9064 543.477 25.5604 543.692 27.1425C543.764 28.0774 544.268 29.7315 546.137 30.091C547.504 30.3068 548.583 29.7315 549.589 28.2932C549.733 28.0774 549.877 27.8617 549.949 27.7179C551.315 25.4885 551.675 21.4613 550.884 17.2902C550.165 13.0472 548.367 9.23576 546.209 7.36598L545.922 7.22215C545.059 6.64683 543.548 5.78386 542.829 6.14343C542.685 6.21534 542.614 6.28726 542.542 6.43109C542.326 6.79066 542.182 7.29407 542.182 8.08513C541.966 12.7596 542.542 17.6498 543.117 22.3242Z" fill="#FBFF4F"/>
<path d="M519.026 28.7966C519.601 29.7315 520.104 30.7383 520.68 31.6732C521.111 32.3923 521.902 33.1834 523.341 33.1834C523.772 33.1834 524.276 33.0395 524.707 32.8957C526.433 32.2485 527.152 31.0978 527.008 29.4438C525.426 23.4749 522.19 16.2834 515.646 15.7081C515.502 15.7081 515.358 15.7081 515.214 15.6362C513.92 15.4923 513.057 15.4923 512.41 16.2115C511.619 17.1464 511.547 18.2251 512.41 19.0881C515.07 21.9647 517.012 25.2727 519.026 28.7966Z" fill="#FBFF4F"/>
<path d="M509.461 63.3157C509.461 63.3157 506.512 61.4459 510.036 55.8365C518.45 42.6042 540.169 29.2281 562.103 43.1795C589.862 60.7987 577.636 90.3556 574.616 95.0301C571.667 99.7045 568.431 99.9922 567.28 99.273C566.13 98.5539 565.698 96.6122 567.352 92.8007C569.006 88.9892 578.427 66.1923 556.565 52.2408C534.631 38.3613 518.019 57.2029 516.149 60.0795C514.351 63.028 511.546 64.6101 509.461 63.3157Z" fill="#FBFF4F"/>
<path d="M603.813 106.824C598.276 104.523 593.385 101.646 588.855 97.9786C587.56 96.8999 586.41 96.828 585.403 97.6909C584.18 98.7697 583.821 100.28 584.54 101.718C585.115 102.797 585.906 103.804 586.482 104.451C586.697 104.667 586.841 104.882 586.913 105.026L587.057 105.17C592.235 110.276 598.995 112.433 603.597 110.42C604.82 109.845 605.539 109.125 605.539 108.478C605.467 107.903 604.82 107.328 603.813 106.824Z" fill="url(#paint20_linear_875_899)"/>
<path d="M614.241 76.8356C614.169 76.6918 614.097 76.6199 614.025 76.4761C613.738 76.1884 613.162 75.9727 612.443 75.9008C607.769 75.1097 602.879 75.0378 598.204 74.9659C596.622 74.9659 594.968 74.894 593.314 74.894C592.379 74.894 590.653 75.1097 590.078 76.9076C589.646 78.202 590.078 79.3527 591.444 80.5752C591.66 80.719 591.804 80.8629 591.947 81.0067C593.961 82.6607 597.916 83.5237 602.159 83.3799C606.474 83.1641 610.501 81.9416 612.659 80.0718L612.875 79.8561C613.45 78.9212 614.529 77.6267 614.241 76.8356Z" fill="url(#paint21_linear_875_899)"/>
<path d="M509.389 45.1212C508.238 42.6042 504.786 39.7276 500.4 37.9298C495.941 36.1319 491.123 35.6285 487.958 36.4195L487.599 36.5634C484.291 37.4264 485.226 40.0872 485.945 40.5187C488.965 43.1795 493.999 43.3953 498.746 45.6966C500.328 46.4876 502.845 47.9978 504.427 48.7889C505.362 49.2923 507.375 51.0902 509.101 49.9395C510.252 48.8608 510.396 47.4944 509.748 45.6966C509.533 45.4808 509.461 45.2651 509.389 45.1212Z" fill="url(#paint22_linear_875_899)"/>
<path d="M570.732 38.3612C571.739 39.2961 572.961 39.44 574.615 38.7927C574.831 38.7208 575.047 38.577 575.263 38.5051C577.636 37.4264 580.225 34.334 581.951 30.4506C583.749 26.4953 584.396 22.3243 583.677 19.5915L583.533 19.3038C583.101 18.3689 582.382 16.7868 581.591 16.7149C581.447 16.7149 581.303 16.7149 581.16 16.7868C580.8 16.9306 580.369 17.2902 579.865 17.9375C577.061 21.7489 574.759 26.0638 572.602 30.2349C571.883 31.6732 571.092 33.1115 570.301 34.5498C569.869 35.4127 569.366 36.9949 570.732 38.3612Z" fill="url(#paint23_linear_875_899)"/>
<path d="M604.388 51.1621C604.46 51.0182 604.46 50.8744 604.532 50.7306C604.891 49.58 605.035 48.7889 604.46 48.0697C603.741 47.1348 602.662 46.9191 601.727 47.5663C598.491 49.58 595.039 50.7306 591.371 51.9531C590.365 52.3127 589.358 52.6004 588.423 52.9599C587.704 53.2476 586.769 53.8229 586.553 55.1174C586.481 55.5489 586.481 55.9804 586.625 56.4119C586.985 58.0659 587.919 59.0008 589.502 59.0727C595.327 58.7131 602.734 56.9872 604.388 51.1621Z" fill="url(#paint24_linear_875_899)"/>
<path d="M545.634 23.6906C545.849 25.2728 545.993 26.9268 546.209 28.5089C546.281 29.4438 546.784 31.0979 548.654 31.4574C550.02 31.6732 551.099 31.0979 552.106 29.6596C552.25 29.4438 552.394 29.2281 552.466 29.0842C553.832 26.8549 554.191 22.8277 553.4 18.6566C552.681 14.4136 550.883 10.6022 548.726 8.73237L548.438 8.58854C547.575 8.01323 546.065 7.15025 545.346 7.50982C545.202 7.58174 545.13 7.65365 545.058 7.79748C544.843 8.15706 544.699 8.66046 544.699 9.45152C544.483 14.126 545.058 18.9443 545.634 23.6906Z" fill="url(#paint25_linear_875_899)"/>
<path d="M521.542 30.0911C522.118 31.0259 522.621 32.0328 523.196 32.9676C523.628 33.6868 524.419 34.4779 525.857 34.4779C526.289 34.4779 526.792 34.334 527.224 34.1902C528.95 33.543 529.669 32.3923 529.525 30.7383C527.943 24.7694 524.707 17.5779 518.162 17.0026C518.019 17.0026 517.875 17.0026 517.731 16.9307C516.436 16.7868 515.573 16.7868 514.926 17.506C514.135 18.4409 514.063 19.5196 514.926 20.3826C517.587 23.3311 519.529 26.6391 521.542 30.0911Z" fill="url(#paint26_linear_875_899)"/>
<path d="M511.978 64.6101C511.978 64.6101 510.037 63.6752 512.194 58.7131C519.314 43.5391 543.549 31.4574 564.836 44.6897C592.595 62.3089 580.513 91.2905 576.773 96.3245C573.825 100.999 571.02 101.359 569.87 100.568C568.719 99.7764 568.287 97.9067 569.941 94.0952C572.387 89.0611 581.448 66.6237 559.514 52.7442C536.789 39.2242 520.608 58.4974 518.738 61.374C516.868 64.3225 514.064 65.9765 511.978 64.6101Z" fill="url(#paint27_linear_875_899)"/>
</g>
<defs>
<linearGradient id="paint0_linear_875_899" x1="181.357" y1="56.5465" x2="178.661" y2="151.474" gradientUnits="userSpaceOnUse">
<stop stop-color="#65B200"/>
<stop offset="0.5323" stop-color="#52981D"/>
<stop offset="0.9944" stop-color="#276401"/>
</linearGradient>
<linearGradient id="paint1_linear_875_899" x1="233.62" y1="58.0312" x2="230.923" y2="152.959" gradientUnits="userSpaceOnUse">
<stop stop-color="#65B200"/>
<stop offset="0.5323" stop-color="#52981D"/>
<stop offset="0.9944" stop-color="#276401"/>
</linearGradient>
<linearGradient id="paint2_linear_875_899" x1="274.348" y1="59.1883" x2="271.651" y2="154.116" gradientUnits="userSpaceOnUse">
<stop stop-color="#65B200"/>
<stop offset="0.5323" stop-color="#52981D"/>
<stop offset="0.9944" stop-color="#276401"/>
</linearGradient>
<linearGradient id="paint3_linear_875_899" x1="310.853" y1="60.2254" x2="308.156" y2="155.153" gradientUnits="userSpaceOnUse">
<stop stop-color="#65B200"/>
<stop offset="0.5323" stop-color="#52981D"/>
<stop offset="0.9944" stop-color="#276401"/>
</linearGradient>
<linearGradient id="paint4_linear_875_899" x1="452.075" y1="81.4106" x2="452.075" y2="125.099" gradientUnits="userSpaceOnUse">
<stop stop-color="#65B200"/>
<stop offset="0.5323" stop-color="#52981D"/>
<stop offset="0.9944" stop-color="#276401"/>
</linearGradient>
<linearGradient id="paint5_linear_875_899" x1="22.8004" y1="169.407" x2="22.8004" y2="209.862" gradientUnits="userSpaceOnUse">
<stop stop-color="#65B200"/>
<stop offset="0.5323" stop-color="#52981D"/>
<stop offset="0.9944" stop-color="#276401"/>
</linearGradient>
<linearGradient id="paint6_linear_875_899" x1="88.2396" y1="169.407" x2="88.2396" y2="209.862" gradientUnits="userSpaceOnUse">
<stop stop-color="#65B200"/>
<stop offset="0.5323" stop-color="#52981D"/>
<stop offset="0.9944" stop-color="#276401"/>
</linearGradient>
<linearGradient id="paint7_linear_875_899" x1="131.102" y1="169.407" x2="131.102" y2="209.862" gradientUnits="userSpaceOnUse">
<stop stop-color="#65B200"/>
<stop offset="0.5323" stop-color="#52981D"/>
<stop offset="0.9944" stop-color="#276401"/>
</linearGradient>
<linearGradient id="paint8_linear_875_899" x1="194.102" y1="169.407" x2="194.102" y2="209.862" gradientUnits="userSpaceOnUse">
<stop stop-color="#65B200"/>
<stop offset="0.5323" stop-color="#52981D"/>
<stop offset="0.9944" stop-color="#276401"/>
</linearGradient>
<linearGradient id="paint9_linear_875_899" x1="254.919" y1="169.407" x2="254.919" y2="209.862" gradientUnits="userSpaceOnUse">
<stop stop-color="#65B200"/>
<stop offset="0.5323" stop-color="#52981D"/>
<stop offset="0.9944" stop-color="#276401"/>
</linearGradient>
<linearGradient id="paint10_linear_875_899" x1="297.831" y1="169.407" x2="297.831" y2="209.862" gradientUnits="userSpaceOnUse">
<stop stop-color="#65B200"/>
<stop offset="0.5323" stop-color="#52981D"/>
<stop offset="0.9944" stop-color="#276401"/>
</linearGradient>
<linearGradient id="paint11_linear_875_899" x1="341.717" y1="169.407" x2="341.717" y2="209.862" gradientUnits="userSpaceOnUse">
<stop stop-color="#65B200"/>
<stop offset="0.5323" stop-color="#52981D"/>
<stop offset="0.9944" stop-color="#276401"/>
</linearGradient>
<linearGradient id="paint12_linear_875_899" x1="410.554" y1="156.917" x2="410.554" y2="208.721" gradientUnits="userSpaceOnUse">
<stop stop-color="#65B200"/>
<stop offset="0.5323" stop-color="#52981D"/>
<stop offset="0.9944" stop-color="#276401"/>
</linearGradient>
<linearGradient id="paint13_linear_875_899" x1="455.448" y1="156.917" x2="455.448" y2="208.721" gradientUnits="userSpaceOnUse">
<stop stop-color="#65B200"/>
<stop offset="0.5323" stop-color="#52981D"/>
<stop offset="0.9944" stop-color="#276401"/>
</linearGradient>
<linearGradient id="paint14_linear_875_899" x1="500.503" y1="156.917" x2="500.503" y2="208.721" gradientUnits="userSpaceOnUse">
<stop stop-color="#65B200"/>
<stop offset="0.5323" stop-color="#52981D"/>
<stop offset="0.9944" stop-color="#276401"/>
</linearGradient>
<linearGradient id="paint15_linear_875_899" x1="540.015" y1="156.917" x2="540.015" y2="208.721" gradientUnits="userSpaceOnUse">
<stop stop-color="#65B200"/>
<stop offset="0.5323" stop-color="#52981D"/>
<stop offset="0.9944" stop-color="#276401"/>
</linearGradient>
<linearGradient id="paint16_linear_875_899" x1="584.178" y1="156.917" x2="584.178" y2="208.721" gradientUnits="userSpaceOnUse">
<stop stop-color="#65B200"/>
<stop offset="0.5323" stop-color="#52981D"/>
<stop offset="0.9944" stop-color="#276401"/>
</linearGradient>
<linearGradient id="paint17_linear_875_899" x1="625.579" y1="156.917" x2="625.579" y2="208.721" gradientUnits="userSpaceOnUse">
<stop stop-color="#65B200"/>
<stop offset="0.5323" stop-color="#52981D"/>
<stop offset="0.9944" stop-color="#276401"/>
</linearGradient>
<linearGradient id="paint18_linear_875_899" x1="665.55" y1="156.917" x2="665.55" y2="208.721" gradientUnits="userSpaceOnUse">
<stop stop-color="#65B200"/>
<stop offset="0.5323" stop-color="#52981D"/>
<stop offset="0.9944" stop-color="#276401"/>
</linearGradient>
<linearGradient id="paint19_linear_875_899" x1="695.105" y1="156.917" x2="695.105" y2="208.721" gradientUnits="userSpaceOnUse">
<stop stop-color="#65B200"/>
<stop offset="0.5323" stop-color="#52981D"/>
<stop offset="0.9944" stop-color="#276401"/>
</linearGradient>
<linearGradient id="paint20_linear_875_899" x1="554.839" y1="-4.00945" x2="611.283" y2="149.23" gradientUnits="userSpaceOnUse">
<stop stop-color="#65B200"/>
<stop offset="0.5323" stop-color="#52981D"/>
<stop offset="0.9944" stop-color="#276401"/>
</linearGradient>
<linearGradient id="paint21_linear_875_899" x1="569.953" y1="-9.57646" x2="626.397" y2="143.663" gradientUnits="userSpaceOnUse">
<stop stop-color="#65B200"/>
<stop offset="0.5323" stop-color="#52981D"/>
<stop offset="0.9944" stop-color="#276401"/>
</linearGradient>
<linearGradient id="paint22_linear_875_899" x1="489.185" y1="20.1731" x2="545.629" y2="173.413" gradientUnits="userSpaceOnUse">
<stop stop-color="#65B200"/>
<stop offset="0.5323" stop-color="#52981D"/>
<stop offset="0.9944" stop-color="#276401"/>
</linearGradient>
<linearGradient id="paint23_linear_875_899" x1="563.675" y1="-7.26432" x2="620.119" y2="145.975" gradientUnits="userSpaceOnUse">
<stop stop-color="#65B200"/>
<stop offset="0.5323" stop-color="#52981D"/>
<stop offset="0.9944" stop-color="#276401"/>
</linearGradient>
<linearGradient id="paint24_linear_875_899" x1="572.419" y1="-10.485" x2="628.863" y2="142.755" gradientUnits="userSpaceOnUse">
<stop stop-color="#65B200"/>
<stop offset="0.5323" stop-color="#52981D"/>
<stop offset="0.9944" stop-color="#276401"/>
</linearGradient>
<linearGradient id="paint25_linear_875_899" x1="541.572" y1="0.876985" x2="598.016" y2="154.117" gradientUnits="userSpaceOnUse">
<stop stop-color="#65B200"/>
<stop offset="0.5323" stop-color="#52981D"/>
<stop offset="0.9944" stop-color="#276401"/>
</linearGradient>
<linearGradient id="paint26_linear_875_899" x1="516.456" y1="10.1283" x2="572.9" y2="163.368" gradientUnits="userSpaceOnUse">
<stop stop-color="#65B200"/>
<stop offset="0.5323" stop-color="#52981D"/>
<stop offset="0.9944" stop-color="#276401"/>
</linearGradient>
<linearGradient id="paint27_linear_875_899" x1="525.1" y1="6.83251" x2="581.601" y2="160.227" gradientUnits="userSpaceOnUse">
<stop stop-color="#65B200"/>
<stop offset="0.5323" stop-color="#52981D"/>
<stop offset="0.9944" stop-color="#276401"/>
</linearGradient>
<clipPath id="clip0_875_899">
<rect width="702.535" height="248.25" fill="white" transform="translate(0.232422 0.750275)"/>
</clipPath>
</defs>
</svg>
