<svg xmlns="http://www.w3.org/2000/svg" xmlns:xlink="http://www.w3.org/1999/xlink"><symbol viewBox="0 0 14 9" id="angle-down" xmlns="http://www.w3.org/2000/svg"><path d="M6.638 7.992 1.18 2.535A.958.958 0 0 1 2.535 1.18l4.78 4.781 4.78-4.78a.958.958 0 1 1 1.355 1.354L7.992 7.992a.958.958 0 0 1-1.354 0Z"/></symbol><symbol viewBox="0 0 21 35" id="angle-left" xmlns="http://www.w3.org/2000/svg"><path fill-rule="evenodd" clip-rule="evenodd" d="m16.302 33.343-14.7-14.7a2.31 2.31 0 0 1 0-3.267l14.7-14.7a2.31 2.31 0 1 1 3.267 3.267L6.502 17.009 19.57 30.076a2.31 2.31 0 0 1-3.267 3.267Z"/></symbol><symbol viewBox="0 0 20 35" id="angle-right" xmlns="http://www.w3.org/2000/svg"><path fill-rule="evenodd" clip-rule="evenodd" d="m4.296 33.343 14.7-14.7a2.31 2.31 0 0 0 0-3.267L4.295.676a2.31 2.31 0 1 0-3.267 3.267L14.095 17.01 1.03 30.076a2.31 2.31 0 1 0 3.267 3.267Z"/></symbol></svg>